<svg width="1282" height="722" xmlns="http://www.w3.org/2000/svg" xmlns:xlink="http://www.w3.org/1999/xlink" overflow="hidden"><defs><filter id="fx0" x="-10%" y="-10%" width="120%" height="120%" filterUnits="userSpaceOnUse" primitiveUnits="userSpaceOnUse"><feComponentTransfer color-interpolation-filters="sRGB"><feFuncR type="discrete" tableValues="0 0"/><feFuncG type="discrete" tableValues="0 0"/><feFuncB type="discrete" tableValues="0 0"/><feFuncA type="linear" slope="0.4" intercept="0"/></feComponentTransfer><feGaussianBlur stdDeviation="1.77778 1.77778"/></filter><filter id="fx1" x="-10%" y="-10%" width="120%" height="120%" filterUnits="userSpaceOnUse" primitiveUnits="userSpaceOnUse"><feComponentTransfer color-interpolation-filters="sRGB"><feFuncR type="discrete" tableValues="0 0"/><feFuncG type="discrete" tableValues="0 0"/><feFuncB type="discrete" tableValues="0 0"/><feFuncA type="linear" slope="0.329412" intercept="0"/></feComponentTransfer><feGaussianBlur stdDeviation="7.88889 7.88889"/></filter><filter id="fx2" x="-10%" y="-10%" width="120%" height="120%" filterUnits="userSpaceOnUse" primitiveUnits="userSpaceOnUse"><feComponentTransfer color-interpolation-filters="sRGB"><feFuncR type="discrete" tableValues="0 0"/><feFuncG type="discrete" tableValues="0 0"/><feFuncB type="discrete" tableValues="0 0"/><feFuncA type="linear" slope="0.4" intercept="0"/></feComponentTransfer><feGaussianBlur stdDeviation="1.77778 1.77778"/></filter><clipPath id="clip3"><rect x="-1" y="-4" width="1282" height="722"/></clipPath><linearGradient x1="1127.24" y1="34.3445" x2="1147.22" y2="183.35" gradientUnits="userSpaceOnUse" spreadMethod="reflect" id="fill4"><stop offset="0" stop-color="#AFD9FF"/><stop offset="0.01" stop-color="#AFD9FF"/><stop offset="1" stop-color="#F6A4A4"/></linearGradient><clipPath id="clip5"><rect x="-2" y="-2" width="145" height="95"/></clipPath><clipPath id="clip6"><rect x="0" y="0" width="142" height="93"/></clipPath><linearGradient x1="1094.9" y1="511.912" x2="1225.1" y2="587.088" gradientUnits="userSpaceOnUse" spreadMethod="reflect" id="fill7"><stop offset="0" stop-color="#AFD9FF"/><stop offset="0.01" stop-color="#AFD9FF"/><stop offset="1" stop-color="#F6A4A4"/></linearGradient><linearGradient x1="91.3603" y1="83.3445" x2="173.698" y2="209.131" gradientUnits="userSpaceOnUse" spreadMethod="reflect" id="fill8"><stop offset="0" stop-color="#AFD9FF"/><stop offset="0.01" stop-color="#AFD9FF"/><stop offset="1" stop-color="#F6A4A4"/></linearGradient><linearGradient x1="1128.36" y1="364.793" x2="1223.88" y2="361.539" gradientUnits="userSpaceOnUse" spreadMethod="reflect" id="fill9"><stop offset="0" stop-color="#AFD9FF"/><stop offset="0.01" stop-color="#AFD9FF"/><stop offset="1" stop-color="#ED7D31"/></linearGradient><linearGradient x1="24.1125" y1="108.197" x2="123.888" y2="165.803" gradientUnits="userSpaceOnUse" spreadMethod="reflect" id="fill10"><stop offset="0" stop-color="#AFD9FF"/><stop offset="0.01" stop-color="#AFD9FF"/><stop offset="1" stop-color="#F6A4A4"/></linearGradient><linearGradient x1="66.6657" y1="680.554" x2="165.394" y2="611.902" gradientUnits="userSpaceOnUse" spreadMethod="reflect" id="fill11"><stop offset="0" stop-color="#AFD9FF"/><stop offset="0.01" stop-color="#AFD9FF"/><stop offset="1" stop-color="#F6A4A4"/></linearGradient><linearGradient x1="1143.43" y1="331.439" x2="1142.33" y2="451.647" gradientUnits="userSpaceOnUse" spreadMethod="reflect" id="fill12"><stop offset="0" stop-color="#AFD9FF"/><stop offset="0.01" stop-color="#AFD9FF"/><stop offset="1" stop-color="#F6A4A4"/></linearGradient><linearGradient x1="885.132" y1="11.326" x2="867.042" y2="84.1043" gradientUnits="userSpaceOnUse" spreadMethod="reflect" id="fill13"><stop offset="0" stop-color="#AFD9FF"/><stop offset="0.01" stop-color="#AFD9FF"/><stop offset="1" stop-color="#F6A4A4"/></linearGradient><linearGradient x1="914.101" y1="7.86981" x2="898.62" y2="70.1516" gradientUnits="userSpaceOnUse" spreadMethod="reflect" id="fill14"><stop offset="0" stop-color="#AFD9FF"/><stop offset="0.01" stop-color="#AFD9FF"/><stop offset="1" stop-color="#F6A4A4"/></linearGradient><linearGradient x1="603.021" y1="57.5521" x2="685.979" y2="105.448" gradientUnits="userSpaceOnUse" spreadMethod="reflect" id="fill15"><stop offset="0" stop-color="#00B0F0"/><stop offset="0.01" stop-color="#00B0F0"/><stop offset="1" stop-color="#ED7D31"/></linearGradient><linearGradient x1="603.021" y1="57.5521" x2="685.979" y2="105.448" gradientUnits="userSpaceOnUse" spreadMethod="reflect" id="fill16"><stop offset="0" stop-color="#00B0F0"/><stop offset="0.01" stop-color="#00B0F0"/><stop offset="1" stop-color="#ED7D31"/></linearGradient><linearGradient x1="120.778" y1="40.7775" x2="201.223" y2="87.2225" gradientUnits="userSpaceOnUse" spreadMethod="reflect" id="fill17"><stop offset="0" stop-color="#AFD9FF"/><stop offset="0.01" stop-color="#AFD9FF"/><stop offset="1" stop-color="#F6A4A4"/></linearGradient><linearGradient x1="1243.77" y1="155.548" x2="1147.71" y2="39.9027" gradientUnits="userSpaceOnUse" spreadMethod="reflect" id="fill18"><stop offset="0" stop-color="#AFD9FF"/><stop offset="0.01" stop-color="#AFD9FF"/><stop offset="1" stop-color="#F6A4A4"/></linearGradient><clipPath id="clip19"><rect x="-7" y="-7" width="364" height="148"/></clipPath><clipPath id="clip20"><rect x="0" y="0" width="353" height="135"/></clipPath><clipPath id="clip21"><rect x="-2" y="-2" width="145" height="95"/></clipPath><clipPath id="clip22"><rect x="0" y="0" width="142" height="93"/></clipPath><linearGradient x1="1077.9" y1="543.912" x2="1208.1" y2="619.088" gradientUnits="userSpaceOnUse" spreadMethod="reflect" id="fill23"><stop offset="0" stop-color="#AFD9FF"/><stop offset="0.01" stop-color="#AFD9FF"/><stop offset="1" stop-color="#F6A4A4"/></linearGradient></defs><g clip-path="url(#clip3)" transform="translate(1 4)"><rect x="0" y="-3" width="1280" height="720" fill="#DAE3F3"/><path d="M1118.75 42.0769C1124.47 37.6683 1132.67 38.7288 1137.08 44.4457L1199.48 125.354C1203.89 131.071 1202.82 139.279 1197.11 143.688L1155.7 175.617C1149.99 180.026 1141.78 178.965 1137.37 173.248L1074.98 92.34C1070.57 86.6231 1071.63 78.4148 1077.35 74.0061Z" fill="url(#fill4)" fill-rule="evenodd"/><g clip-path="url(#clip5)" filter="url(#fx0)" transform="translate(1092 506)"><g clip-path="url(#clip6)"><path d="M6.82837 19.9953C6.82837 12.7235 12.7234 6.82843 19.9953 6.82843L121.661 6.82843C128.933 6.82843 134.828 12.7235 134.828 19.9953L134.828 72.6615C134.828 79.9334 128.933 85.8284 121.661 85.8284L19.9953 85.8284C12.7234 85.8284 6.82837 79.9334 6.82837 72.6615Z" fill="#FF0000" fill-rule="evenodd"/></g></g><path d="M1096 523.167C1096 515.895 1101.9 510 1109.17 510L1210.83 510C1218.1 510 1224 515.895 1224 523.167L1224 575.833C1224 583.105 1218.1 589 1210.83 589L1109.17 589C1101.9 589 1096 583.105 1096 575.833Z" fill="url(#fill7)" fill-rule="evenodd"/><path d="M87.0428 93.9823C90.297 87.5379 98.1591 84.9517 104.603 88.2058L195.807 134.26C202.251 137.514 204.838 145.376 201.583 151.82L178.016 198.493C174.762 204.937 166.899 207.524 160.455 204.27L69.2515 158.216C62.8072 154.962 60.221 147.099 63.4751 140.655Z" fill="url(#fill8)" fill-rule="evenodd"/><path d="M1197.52 343.926C1198.42 345.368 1198.01 347.159 1196.56 348.059 1195.12 348.959 1193.33 348.544 1192.43 347.101L1186.61 337.768C1187.51 339.21 1187.09 341.001 1185.65 341.901 1184.21 342.8 1182.42 342.385 1181.52 340.943L1178.34 335.852C1179.24 337.294 1178.83 339.085 1177.39 339.985 1175.94 340.885 1174.15 340.47 1173.25 339.027L1171.08 335.548C1169.78 336.48 1168.42 337.327 1166.89 338.279 1156.37 344.841 1148.45 347.07 1145.26 347.057 1146.65 344.185 1152.14 338.053 1162.66 331.491 1173.18 324.929 1181.1 322.7 1184.29 322.713L1197.52 343.926ZM1154.11 382.787C1153.01 382.532 1151.3 377.707 1152.24 367.691L1158.69 378.043C1156.68 381.422 1154.94 382.979 1154.11 382.787ZM1160.54 328.097C1147.39 336.3 1138.69 345.969 1141.02 349.703L1148.85 362.26C1148.74 363.034 1148.64 363.808 1148.5 364.719 1147.82 370.803 1146.74 385.144 1153.22 386.645 1154.46 386.932 1155.82 386.668 1157.1 385.874 1162.1 382.752 1166.79 371.934 1169.4 360.997 1170.01 360.849 1170.63 360.702 1171.22 360.331 1173.59 358.849 1174.3 355.818 1172.82 353.443 1171.33 351.067 1168.3 350.364 1165.93 351.846 1163.55 353.328 1162.85 356.359 1164.33 358.735 1164.65 359.244 1165.05 359.7 1165.48 360.018 1165.17 361.396 1164.76 362.827 1164.34 364.035 1162.97 363.355 1161.7 362.262 1160.8 360.82 1158.15 356.577 1159.43 351.066 1163.67 348.42 1167.92 345.774 1173.43 347.051 1176.07 351.294 1178.72 355.536 1177.44 361.047 1173.2 363.693 1173.03 363.799 1172.77 363.958 1172.6 364.064 1171.04 369.871 1167.95 379.461 1163.16 385.393L1172.69 400.665C1175.01 404.399 1187.61 400.785 1200.68 392.636 1213.74 384.486 1222.53 374.764 1220.2 371.03L1188.45 320.12C1186.21 316.334 1173.7 319.895 1160.54 328.097Z" fill="url(#fill9)" fill-rule="evenodd"/><path d="M117.3 123.076 113.497 119.297C112.597 118.402 111.296 118.402 110.396 119.198 109.595 119.993 108.294 120.093 107.394 119.297 106.493 118.402 106.493 116.91 107.394 116.015 108.194 115.12 108.094 113.827 107.294 113.031L97.9881 103.882C92.3847 98.3124 81.178 96.4227 70.1714 99.4063 70.0713 99.4063 69.9713 99.5058 69.8712 99.5058 69.4709 99.8041 69.1708 100.202 69.2708 100.699 69.3709 101.196 69.6711 101.594 70.1714 101.793 71.5722 102.291 74.1738 103.086 74.1738 103.086 80.2774 105.175 86.3811 113.131 87.1816 114.722L58.2642 143.265 57.4637 142.469C56.5632 141.574 55.1624 141.574 54.3619 142.469L31.148 165.642 31.248 165.741C29.3469 168.327 29.647 171.808 31.9485 174.096 34.2498 176.283 37.7519 176.681 40.3535 174.792L40.4535 174.891 63.7676 151.719C64.668 150.824 64.668 149.431 63.7676 148.636L62.9671 147.84 91.6843 119.297 96.287 123.872C97.1876 124.767 98.4883 124.767 99.3889 123.971 100.189 123.176 101.49 123.076 102.391 123.872 103.291 124.767 103.291 126.259 102.391 127.154 101.59 128.049 101.69 129.342 102.491 130.137L106.393 133.917C107.294 134.812 108.694 134.812 109.595 133.917L117.3 126.259C117.7 125.861 118 125.264 118 124.667 118 124.071 117.8 123.474 117.3 123.076Z" fill="url(#fill10)" fill-rule="evenodd"/><path d="M93.2774 591.108 96.1119 602.939 99.7165 607.728 99.8495 607.68 116.148 652.917 110.602 654.84 111.992 658.699C113.456 658.171 114.994 658.895 115.431 660.316 115.958 661.779 115.235 663.318 113.814 663.754L126.091 698.039 126.224 697.991C128.141 701.434 132.293 702.944 136.018 701.602 139.743 700.26 141.978 696.449 141.258 692.574L141.391 692.526 140.912 691.196 129.072 658.332C127.608 658.86 126.07 658.136 125.633 656.715 125.106 655.252 125.829 653.713 127.25 653.276L125.908 649.551 120.23 651.522 103.931 606.285 104.064 606.237 103.786 600.249 98.3332 589.286 93.2774 591.108Z" fill="url(#fill11)" fill-rule="evenodd"/><path d="M1181.51 408.878 1179.67 401.762 1184.92 396.614 1197.18 400.02C1196.27 394.335 1192.36 389.653 1186.84 387.829 1181.38 386.092 1175.36 387.428 1171.36 391.527L1118.49 376.842C1117.09 371.316 1112.62 367.065 1107.09 365.824 1101.57 364.583 1095.75 366.49 1092.04 370.889L1104.3 374.295 1106.09 381.324 1100.84 386.472 1088.58 383.065C1089.5 388.751 1093.41 393.433 1098.92 395.257 1104.38 396.994 1110.4 395.658 1114.4 391.559L1167.27 406.243C1168.67 411.77 1173.14 416.02 1178.67 417.262 1184.2 418.503 1190.01 416.595 1193.73 412.197L1181.51 408.878Z" fill="url(#fill12)" fill-rule="evenodd"/><path d="M892.181 77.6329 896.577 61.8015 890.773 65.1354C890.224 65.3972 889.675 65.6592 889.194 65.7974 882.659 67.6764 875.174 60.4638 871.858 48.931 868.542 37.3983 871.053 27.3118 877.588 25.4328 878.165 25.267 878.673 25.2248 879.277 25.1552L885.966 24.8967 873.832 13.8183C872.704 12.79 870.974 13.2874 870.565 14.7579L860.899 49.8971C860.489 51.3676 860.931 52.9053 862.059 53.9336L888.913 78.5724C890.041 79.6007 891.771 79.1033 892.181 77.6329Z" fill="url(#fill13)" fill-rule="evenodd"/><path d="M902.299 33.2071C902.371 35.2674 902.814 37.5332 903.477 39.8397 904.141 42.1463 905.037 44.1777 906.001 46.0855L897.603 50.8934C896.02 48.6433 894.682 45.8022 893.771 42.6307 892.859 39.4592 892.483 36.3417 892.629 33.5942L902.299 33.2071ZM924.302 32.2912C924.44 32.7717 924.483 33.2799 924.621 33.7604 924.759 34.241 924.897 34.7215 925.131 35.1744L916.376 40.189C915.825 38.9949 915.369 37.7732 915.01 36.5237 914.651 35.2744 914.388 33.9973 914.125 32.7203L924.302 32.2912ZM874.646 48.1297C877.381 57.6442 883.464 64.3235 888.269 62.9418 888.653 62.8313 888.914 62.6523 889.202 62.5694L936.931 35.3195C938.289 34.6166 938.766 32.2945 938.076 29.8918 937.385 27.4892 935.747 25.7749 934.223 25.901L879.31 28.1634C878.994 28.1501 878.609 28.2607 878.321 28.3436 873.516 29.7252 871.91 38.6151 874.646 48.1297Z" fill="url(#fill14)" fill-rule="evenodd"/><path d="M655.5 71.1389C651.261 71.1389 647.93 67.6989 647.93 63.5507 647.93 59.4024 651.362 55.9624 655.5 55.9624 659.74 55.9624 663.07 59.4024 663.07 63.5507 663.07 67.6989 659.639 71.1389 655.5 71.1389ZM672.559 58.7953C672.155 57.3788 671.65 56.0636 670.944 54.8495L672.559 50.0941 668.925 46.4518 664.181 48.0706C662.969 47.3624 661.657 46.8565 660.244 46.4518L658.024 42 652.977 42 650.756 46.4518C649.343 46.8565 648.031 47.3624 646.819 48.0706L642.075 46.4518 638.441 50.0941 640.056 54.8495C639.35 56.0636 638.845 57.3788 638.441 58.7953L634 61.0212 634 66.08 638.441 68.3059C638.845 69.7224 639.35 71.0377 640.056 72.2519L638.441 77.0071 641.974 80.5483 646.718 78.9295C647.93 79.6377 649.242 80.1436 650.655 80.5483L652.876 85.0001 657.923 85.0001 660.143 80.5483C661.556 80.1436 662.869 79.6377 664.08 78.9295L668.824 80.5483 672.458 77.0071 670.843 72.2519C671.549 71.0377 672.155 69.6213 672.559 68.3059L677 66.08 677 61.0212 672.559 58.7953Z" fill="url(#fill15)" fill-rule="evenodd"/><path d="M633 107.461C628.859 107.461 625.606 104.101 625.606 100.049 625.606 95.8988 628.958 92.6377 633 92.6377 637.141 92.6377 640.394 95.9977 640.394 100.049 640.394 104.101 637.141 107.461 633 107.461L633 107.461ZM648.085 91.5506 649.662 86.9059 646.113 83.3482 641.479 84.9294C640.296 84.2376 638.916 83.7435 637.634 83.3482L635.465 79 630.535 79 628.366 83.3482C626.986 83.7435 625.704 84.2376 624.521 84.9294L619.887 83.3482 616.437 86.807 617.915 91.4518C617.225 92.6377 616.732 94.0212 616.338 95.306L612 97.48 612 102.421 616.338 104.595C616.732 105.979 617.225 107.264 617.915 108.449L616.437 113.094 619.887 116.553 624.521 115.071C625.704 115.762 626.986 116.256 628.366 116.652L630.535 121 635.465 121 637.634 116.652C639.014 116.256 640.296 115.762 641.479 115.071L646.113 116.652 649.563 113.094 648.085 108.548C648.775 107.362 649.268 106.078 649.662 104.694L654 102.52 654 97.5788 649.662 95.4047C649.268 94.0212 648.775 92.7364 648.085 91.5506Z" fill="url(#fill16)" fill-rule="evenodd"/><path d="M160.95 76C154.36 76 148.968 70.6 148.968 64 148.968 57.4 154.36 52 160.95 52 167.54 52 172.932 57.4 172.932 64 172.932 70.6 167.54 76 160.95 76ZM187.91 56.5001C187.311 54.3001 186.413 52.2 185.314 50.3001L187.811 42.8 182.119 37.1001 174.63 39.6C172.633 38.5001 170.536 37.6 168.339 37L164.944 30 156.956 30 153.461 37C151.264 37.6 149.167 38.5001 147.27 39.6L139.781 37.1001 134.09 42.8 136.586 50.3001C135.488 52.3001 134.589 54.4 133.99 56.6L127 60 127 68 133.99 71.5C134.589 73.7001 135.488 75.8 136.586 77.7001L134.09 85.2 139.781 90.9001 147.27 88.4C149.267 89.5 151.364 90.4 153.561 91L157.056 98 165.044 98 168.539 91C170.736 90.4 172.833 89.5 174.73 88.4L182.219 90.9001 187.91 85.2 185.414 77.7001C186.513 75.7001 187.411 73.6 188.01 71.4L195 67.9001 195 59.9001 187.91 56.5001Z" fill="url(#fill17)" fill-rule="evenodd"/><path d="M1246.85 144.489C1244.35 151.261 1236.83 154.721 1230.06 152.218L1134.22 116.797C1127.45 114.294 1123.99 106.776 1126.5 100.004L1144.62 50.9612C1147.12 44.1896 1154.64 40.7291 1161.41 43.2319L1257.25 78.6532C1264.02 81.1561 1267.48 88.6745 1264.98 95.4461Z" fill="url(#fill18)" fill-rule="evenodd"/><g clip-path="url(#clip19)" filter="url(#fx1)" transform="translate(695 455)"><g clip-path="url(#clip20)"><path d="M232.491 58.2044C221.446 58.2044 215.924 65.0789 215.924 78.8279 215.924 85.5691 217.276 90.7298 219.98 94.3099 222.684 97.8899 226.607 99.68 231.748 99.68 242.87 99.68 248.43 92.7293 248.43 78.8279 248.43 65.0789 243.117 58.2044 232.491 58.2044ZM267.3 49.6922 281.239 49.6922 292.722 84.4837C294.969 91.8724 296.302 96.3665 296.721 97.9661 297.064 96.6712 297.569 94.9764 298.235 92.8816 298.902 90.7869 299.844 87.9495 301.063 84.3694L312.774 49.6922 326.6 49.6922 304.491 108.249 288.837 108.249ZM113.926 49.6922 127.066 49.6922 127.066 108.249 113.926 108.249ZM232.206 48.4925C241.994 48.4925 249.439 51.0918 254.543 56.2906 259.646 61.4893 262.198 69.0018 262.198 78.8279 262.198 88.3875 259.542 95.8714 254.229 101.28 248.916 106.688 241.46 109.392 231.863 109.392 222.57 109.392 215.295 106.65 210.04 101.165 204.784 95.6809 202.156 88.2352 202.156 78.8279 202.156 69.2683 204.793 61.8226 210.068 56.4905 215.343 51.1585 222.722 48.4925 232.206 48.4925ZM25.2402 27.7547 41.8076 27.7547 82.9404 93.3958C82.7881 91.3011 82.6547 88.9969 82.5405 86.4832 82.4262 83.9695 82.3691 80.9798 82.3691 77.514L82.3691 27.7547 94.9946 27.7547 94.9946 108.249 78.0273 108.249 37.3515 43.0652C37.4658 45.5408 37.5705 47.9878 37.6657 50.4063 37.761 52.8247 37.8086 55.2718 37.8086 57.7474L37.8086 108.249 25.2402 108.249ZM144.812 25.1839 158.009 25.1839 158.009 76.0857 181.546 49.6922 196.571 49.6922 173.776 74.0291 197.828 108.249 182.517 108.249 164.521 82.2557 158.009 87.5115 158.009 108.249 144.812 108.249ZM113.926 25.1839 127.009 25.1839 127.009 36.4383 113.926 36.4383Z" fill="#DAE3F3" fill-rule="evenodd"/><path d="M232.429 58.8682 232.551 58.8684 228.678 59.218 228.807 59.1932 225.432 60.1932 225.566 60.1368 222.754 61.6993 222.902 61.5879 220.589 63.9004 220.676 63.7932 218.801 66.6682 218.872 66.5247 217.622 70.0872 217.647 69.9935 216.835 74.181 216.846 74.0886 216.596 78.9011 216.596 78.8315 216.846 83.5815 216.836 83.499 217.586 87.6865 217.556 87.5735 218.868 91.136 218.819 91.0306 220.569 94.0306 220.47 93.9016 222.72 96.2141 222.591 96.1108 225.341 97.7983 225.192 97.7304 228.38 98.7304 228.237 98.7023 231.862 99.0148 231.752 99.0144 235.69 98.7019 235.553 98.7273 238.928 97.7273 238.784 97.7893 241.597 96.1643 241.472 96.2575 243.847 94.0075 243.738 94.1414 245.55 91.2039 245.489 91.3333 246.739 87.7708 246.713 87.8663 247.525 83.6163 247.514 83.7074 247.764 78.8324 247.764 78.9011 247.514 74.0886 247.524 74.1715 246.774 69.984 246.801 70.0872 245.551 66.5247 245.611 66.6507 243.861 63.7756 243.952 63.8939 241.702 61.5814 241.845 61.6929 239.158 60.1304 239.297 60.1912 236.047 59.1912 236.181 59.2178ZM236.373 57.8966 239.762 58.9393 242.594 60.5861 244.96 63.0181 246.786 66.0172 248.077 69.6963 248.844 73.9777 249.098 78.8663 248.844 83.8216 248.013 88.1654 246.723 91.8428 244.827 94.9156 242.332 97.2795 239.383 98.9833 235.865 100.026 231.803 100.348 228.05 100.024 224.714 98.9779 221.823 97.2036 219.458 94.7729 217.637 91.6519 216.284 87.9794 215.517 83.6931 215.263 78.8667 215.517 73.9728 216.347 69.6917 217.64 66.0073 219.597 63.0067 222.025 60.5791 224.983 58.9356 228.492 57.896 232.492 57.5349ZM266.343 49.0221 281.725 49.0765 293.379 84.291 294.881 89.2999 296.07 93.2402 296.883 96.0565 297.384 97.8084 296.105 97.7967 296.793 95.5467 296.79 95.5565 297.606 92.7294 298.861 89.0275 300.486 84.2157 312.326 49.0748 327.582 49.0748 304.953 108.972 288.372 108.914ZM289.463 108.019 288.84 107.583 304.495 107.637 303.869 108.068 325.994 49.5059 326.618 50.4082 312.805 50.4082 313.437 49.9544 301.749 84.6423 300.124 89.4555 298.874 93.143 298.883 93.114 298.069 95.9314 296.721 100.343 295.602 96.4265 294.79 93.614 294.792 93.6215 293.604 89.6831 292.104 84.6831 292.11 84.701 280.61 49.951 281.24 50.4082 267.297 50.3589 267.926 49.4621ZM113.26 49.023 127.784 49.0773 127.784 108.973 113.26 108.913ZM114.593 108.249 113.929 107.583 127.12 107.637 126.451 108.304 126.451 49.7415 127.115 50.4082 113.924 50.3589 114.593 49.6922ZM232.205 47.824 239.219 48.3304 245.403 49.7966 250.663 52.2984 255.033 55.8334 258.505 60.2687 260.939 65.6502 262.404 71.8275 262.911 78.867 262.403 85.785 260.873 91.9069 258.311 97.2219 254.721 101.775 250.23 105.431 244.911 108.058 238.786 109.59 231.867 110.098 225.192 109.589 219.255 107.993 213.999 105.365 209.572 101.644 206.045 97.0904 203.549 91.7155 202.02 85.6613 201.512 78.8667 202.02 72.0103 203.549 65.8918 206.047 60.5762 209.64 56.0205 214.071 52.4248 219.388 49.862 225.385 48.331ZM225.542 49.6563 225.658 49.6375 219.783 51.1375 219.907 51.0921 214.72 53.5921 214.85 53.5092 210.538 57.0092 210.641 56.9044 207.141 61.3419 207.221 61.2125 204.784 66.4 204.827 66.2782 203.327 72.2782 203.345 72.1658 202.845 78.9158 202.845 78.8168 203.345 85.5043 203.327 85.3907 204.827 91.3282 204.785 91.2108 207.222 96.4608 207.145 96.3333 210.582 100.771 210.484 100.669 214.797 104.294 214.666 104.208 219.791 106.77 219.666 106.723 225.478 108.285 225.356 108.264 231.918 108.764 231.819 108.764 238.631 108.264 238.518 108.282 244.518 106.782 244.385 106.831 249.572 104.269 249.447 104.35 253.822 100.787 253.719 100.891 257.219 96.4537 257.142 96.5771 259.642 91.3896 259.596 91.5173 261.096 85.5173 261.078 85.6302 261.578 78.8177 261.578 78.9144 261.078 71.9769 261.094 72.0828 259.656 66.0203 259.698 66.1413 257.323 60.8913 257.405 61.0274 254.03 56.7149 254.136 56.8224 249.886 53.3849 250.019 53.4686 244.894 51.0311 245.026 51.0777 238.964 49.6402 239.07 49.6565 232.158 49.1574 232.255 49.1573ZM24.5736 27.0861 42.2373 27.1384 83.5576 93.075 82.3279 93.4792 82.0773 90.1588 81.889 86.5188 81.7636 82.3809 81.701 77.5583 81.701 27.1374 95.7218 27.1374 95.7218 108.971 77.6854 108.971 36.8021 43.4695 38.0337 43.0881 38.3465 50.4063 38.5343 57.7955 38.5343 108.974 24.5736 108.913ZM25.9069 108.249 25.2431 107.583 37.8706 107.637 37.201 108.304 37.201 57.804 37.2012 57.821 37.0137 50.446 37.0141 50.4575 36.5936 40.6172 78.6207 107.951 78.0552 107.637 95.0552 107.637 94.3885 108.304 94.3885 27.804 95.0552 28.4707 82.3677 28.4707 83.0343 27.804 83.0343 77.554 83.0343 77.5454 83.0968 82.3579 83.0965 82.3463 83.2215 86.4713 83.221 86.4571 83.4085 90.0821 83.4075 90.0663 83.8605 96.0693 41.3028 28.158 41.8657 28.4707 25.2383 28.4214 25.9069 27.7547ZM144.145 24.5143 158.722 24.5777 158.722 76.1165 157.557 75.673 181.256 49.0748 198.157 49.0748 174.291 74.5102 174.351 73.6708 199.151 108.971 182.206 108.971 164.007 82.6835 164.974 82.8226 158.474 88.0726 158.722 87.554 158.722 108.973 144.145 108.913ZM145.479 108.249 144.815 107.583 158.058 107.637 157.389 108.304 157.389 87.2355 164.695 81.3344 183.103 107.925 182.555 107.637 197.868 107.637 197.322 108.687 172.948 73.9934 196.132 49.2853 196.618 50.4082 181.555 50.4082 182.053 50.185 157.389 77.8669 157.389 25.2415 158.052 25.9082 144.809 25.8506 145.479 25.1839ZM113.26 24.5143 127.722 24.5778 127.722 37.1609 113.26 37.1023ZM114.593 36.4383 113.929 35.7716 127.058 35.8249 126.389 36.4915 126.389 25.2415 127.052 25.9082 113.923 25.8506 114.593 25.1839Z" fill="#BFBFBF"/></g></g><path d="M927.77 507.878C916.725 507.878 911.203 514.753 911.203 528.502 911.203 535.243 912.555 540.404 915.259 543.984 917.963 547.564 921.886 549.354 927.028 549.354 938.149 549.354 943.709 542.403 943.709 528.502 943.709 514.753 938.396 507.878 927.77 507.878ZM962.579 499.366 976.518 499.366 988.001 534.158C990.248 541.546 991.581 546.04 992 547.64 992.343 546.345 992.848 544.65 993.514 542.556 994.181 540.461 995.123 537.623 996.342 534.043L1008.05 499.366 1021.88 499.366 999.77 557.923 984.117 557.923ZM809.205 499.366 822.345 499.366 822.345 557.923 809.205 557.923ZM927.485 498.166C937.273 498.166 944.719 500.766 949.822 505.965 954.926 511.163 957.477 518.676 957.477 528.502 957.477 538.061 954.821 545.545 949.508 550.954 944.195 556.362 936.74 559.066 927.142 559.066 917.849 559.066 910.575 556.324 905.319 550.839 900.063 545.355 897.435 537.909 897.435 528.502 897.435 518.942 900.072 511.497 905.347 506.164 910.622 500.832 918.001 498.166 927.485 498.166ZM720.519 477.429 737.087 477.429 778.22 543.07C778.067 540.975 777.934 538.671 777.82 536.157 777.705 533.643 777.648 530.654 777.648 527.188L777.648 477.429 790.274 477.429 790.274 557.923 773.307 557.923 732.631 492.739C732.745 495.215 732.85 497.662 732.945 500.08 733.04 502.499 733.088 504.946 733.088 507.421L733.088 557.923 720.519 557.923ZM840.091 474.858 853.288 474.858 853.288 525.76 876.825 499.366 891.85 499.366 869.055 523.703 893.107 557.923 877.796 557.923 859.801 531.93 853.288 537.185 853.288 557.923 840.091 557.923ZM809.205 474.858 822.288 474.858 822.288 486.112 809.205 486.112Z" fill="#DAE3F3" fill-rule="evenodd"/><text fill="#000000" fill-opacity="0" font-family="Arial,Arial_MSFontService,sans-serif" font-size="84.208" x="720.519" y="548.54">Nikov</text><path d="M927.708 508.542 927.83 508.542 923.957 508.892 924.086 508.867 920.711 509.867 920.846 509.811 918.033 511.373 918.181 511.262 915.868 513.574 915.955 513.467 914.08 516.342 914.151 516.199 912.901 519.761 912.926 519.667 912.114 523.855 912.125 523.763 911.875 528.575 911.875 528.505 912.125 533.255 912.115 533.173 912.865 537.36 912.835 537.247 914.147 540.81 914.098 540.705 915.848 543.705 915.75 543.576 918 545.888 917.87 545.785 920.62 547.472 920.471 547.404 923.659 548.404 923.517 548.376 927.142 548.689 927.032 548.688 930.969 548.376 930.832 548.401 934.207 547.401 934.063 547.463 936.876 545.838 936.751 545.932 939.126 543.682 939.017 543.815 940.829 540.878 940.768 541.007 942.018 537.445 941.992 537.54 942.805 533.29 942.794 533.381 943.044 528.506 943.044 528.575 942.794 523.763 942.803 523.846 942.053 519.658 942.08 519.761 940.83 516.199 940.89 516.325 939.14 513.45 939.231 513.568 936.981 511.255 937.124 511.367 934.437 509.804 934.576 509.865 931.326 508.865 931.46 508.892ZM931.652 507.571 935.041 508.613 937.873 510.26 940.24 512.692 942.065 515.691 943.356 519.37 944.123 523.652 944.377 528.54 944.123 533.495 943.292 537.839 942.002 541.517 940.106 544.59 937.611 546.953 934.662 548.657 931.144 549.7 927.082 550.022 923.329 549.698 919.993 548.652 917.102 546.878 914.737 544.447 912.916 541.326 911.563 537.653 910.796 533.367 910.542 528.541 910.796 523.647 911.627 519.366 912.919 515.681 914.876 512.681 917.304 510.253 920.262 508.61 923.771 507.57 927.771 507.209ZM961.622 498.696 977.004 498.75 988.658 533.965 990.16 538.974 991.349 542.914 992.162 545.73 992.663 547.482 991.384 547.471 992.072 545.221 992.069 545.23 992.885 542.403 994.14 538.701 995.765 533.89 1007.61 498.749 1022.86 498.749 1000.23 558.646 983.651 558.588ZM984.742 557.693 984.119 557.257 999.774 557.311 999.148 557.742 1021.27 499.18 1021.9 500.082 1008.08 500.082 1008.72 499.628 997.028 534.316 995.403 539.13 994.153 542.817 994.162 542.788 993.348 545.605 992 550.017 990.881 546.1 990.069 543.288 990.071 543.295 988.883 539.357 987.383 534.357 987.389 534.375 975.889 499.625 976.519 500.082 962.577 500.033 963.205 499.136ZM808.539 498.697 823.063 498.751 823.063 558.647 808.539 558.587ZM809.872 557.923 809.208 557.257 822.4 557.311 821.73 557.978 821.73 499.415 822.394 500.082 809.203 500.033 809.872 499.366ZM927.484 497.498 934.498 498.004 940.682 499.471 945.942 501.972 950.312 505.507 953.784 509.943 956.218 515.324 957.683 521.501 958.19 528.541 957.682 535.459 956.152 541.581 953.591 546.896 950 551.449 945.509 555.105 940.19 557.732 934.065 559.264 927.146 559.771 920.471 559.263 914.534 557.667 909.278 555.039 904.851 551.318 901.324 546.764 898.828 541.389 897.299 535.335 896.791 528.541 897.299 521.684 898.828 515.566 901.326 510.25 904.919 505.694 909.35 502.099 914.667 499.536 920.664 498.005ZM920.821 499.33 920.937 499.311 915.062 500.811 915.186 500.766 909.999 503.266 910.129 503.183 905.817 506.683 905.92 506.578 902.42 511.016 902.5 510.886 900.063 516.074 900.106 515.952 898.606 521.952 898.624 521.84 898.124 528.59 898.124 528.491 898.624 535.178 898.606 535.065 900.106 541.002 900.064 540.885 902.501 546.135 902.424 546.007 905.861 550.445 905.763 550.343 910.076 553.968 909.945 553.882 915.07 556.444 914.945 556.397 920.757 557.959 920.635 557.938 927.197 558.438 927.098 558.438 933.911 557.938 933.798 557.956 939.798 556.456 939.664 556.505 944.852 553.943 944.726 554.023 949.101 550.461 948.998 550.565 952.498 546.128 952.421 546.251 954.921 541.064 954.875 541.191 956.375 535.191 956.357 535.304 956.857 528.492 956.857 528.588 956.357 521.651 956.373 521.757 954.936 515.694 954.977 515.815 952.602 510.565 952.684 510.701 949.309 506.389 949.415 506.496 945.165 503.059 945.298 503.143 940.173 500.705 940.305 500.752 934.243 499.314 934.349 499.33 927.437 498.831 927.534 498.831ZM719.853 476.76 737.516 476.812 778.837 542.749 777.607 543.153 777.356 539.833 777.168 536.193 777.043 532.055 776.98 527.232 776.98 476.811 791.001 476.811 791.001 558.645 772.965 558.645 732.081 493.143 733.313 492.762 733.626 500.08 733.813 507.469 733.813 558.648 719.853 558.587ZM721.186 557.923 720.522 557.257 733.15 557.311 732.48 557.978 732.48 507.478 732.48 507.495 732.293 500.12 732.293 500.131 731.873 490.291 773.9 557.625 773.334 557.311 790.334 557.311 789.668 557.978 789.668 477.478 790.334 478.145 777.647 478.145 778.313 477.478 778.313 527.228 778.313 527.219 778.376 532.032 778.376 532.02 778.501 536.145 778.5 536.131 778.688 539.756 778.687 539.74 779.14 545.743 736.582 477.832 737.145 478.145 720.517 478.095 721.186 477.429ZM839.424 474.188 854.001 474.252 854.001 525.79 852.837 525.347 876.535 498.749 893.437 498.749 869.57 524.184 869.63 523.345 894.43 558.645 877.485 558.645 859.286 532.357 860.253 532.497 853.753 537.747 854.001 537.228 854.001 558.647 839.424 558.587ZM840.758 557.923 840.094 557.257 853.337 557.311 852.668 557.978 852.668 536.909 859.974 531.008 878.382 557.599 877.834 557.311 893.147 557.311 892.601 558.361 868.227 523.667 891.411 498.959 891.897 500.082 876.834 500.082 877.332 499.859 852.668 527.541 852.668 474.915 853.331 475.582 840.088 475.525 840.758 474.858ZM808.539 474.188 823.001 474.252 823.001 486.835 808.539 486.776ZM809.872 486.112 809.208 485.446 822.337 485.499 821.668 486.165 821.668 474.915 822.331 475.582 809.202 475.525 809.872 474.858Z" fill="#BFBFBF"/><g clip-path="url(#clip21)" filter="url(#fx2)" transform="translate(1075 538)"><g clip-path="url(#clip22)"><path d="M6.82837 19.9953C6.82837 12.7235 12.7234 6.82843 19.9953 6.82843L121.661 6.82843C128.933 6.82843 134.828 12.7235 134.828 19.9953L134.828 72.6615C134.828 79.9334 128.933 85.8284 121.661 85.8284L19.9953 85.8284C12.7234 85.8284 6.82837 79.9334 6.82837 72.6615Z" fill="#FF0000" fill-rule="evenodd"/></g></g><path d="M1079 555.167C1079 547.895 1084.9 542 1092.17 542L1193.83 542C1201.1 542 1207 547.895 1207 555.167L1207 607.833C1207 615.105 1201.1 621 1193.83 621L1092.17 621C1084.9 621 1079 615.105 1079 607.833Z" fill="url(#fill23)" fill-rule="evenodd"/></g></svg>